<svg version="1.0" xmlns="http://www.w3.org/2000/svg" width="21px" height="22px" viewBox="0 0 650 130">
    <g transform="translate(100,300) scale(0.1,-0.1)" fill="#464646">
        <path d="M2280 5420 c0 -99 -1 -180 -2 -180 -53 -1 -277 -52 -378 -86 -258 -86 -456 -204 -641 -382 -276 -264 -435 -547 -516 -916 l-27 -121 -3 -646 -4 -646 -349 -354 -349 -354 -1 -342 0 -343 875 0 875 0 0 -208 c0 -226 8 -292 47 -392 154 -393 620 -561 986 -356 173 96 311 288 346 480 6 33 11 153 11 268 l0 208 875 0 875 0 0 343 -1 342 -349 355 -350 354 0 593 c0 625 -3 686 -50 888 -91 393 -345 760 -700 1012 -216 154 -459 246 -782 298 l-38 6 0 179 0 180 -175 0 -175 0 0 -180z m433 -544 c520 -95 937 -469 1082 -971 57 -197 58 -215 62 -944 l5 -673 83 -82 c45 -44 202 -203 349 -352 l266 -271 0 -92 0 -91 -2105 0 -2105 0 0 91 0 92 266 271 c147 149 304 308 349 352 l83 82 5 673 c3 566 6 688 20 764 85 469 346 827 752 1028 142 70 271 107 490 141 60 9 312 -3 398 -18z m85 -4058 c-3 -230 -3 -234 -30 -283 -34 -66 -111 -137 -173 -161 -36 -14 -75 -19 -140 -19 -112 0 -171 21 -238 84 -96 89 -116 168 -117 449 l0 162 351 0 350 0 -3 -232z"/>
    </g>
</svg>