<svg version="1.0" xmlns="http://www.w3.org/2000/svg" width="26px" height="26px" viewBox="0 0 600 1">
    <g transform="translate(35,195) scale(0.1,-0.1)" fill="#464646">
        <path d="M0 2890 l0 -1310 395 0 395 0 0 -260 c0 -143 2 -260 5 -260 3 0 239 117 525 260 l520 260 130 0 130 0 0 -525 0 -525 655 0 655 0 520 -260 c286 -143 522 -260 525 -260 3 0 5 117 5 260 l0 260 395 0 395 0 0 1310 0 1310 -708 0 c-390 0 -804 3 -920 7 l-212 6 0 519 0 518 -1705 0 -1705 0 0 -1310z m3150 0 l0 -1050 -690 0 -690 0 -360 -180 -360 -180 0 180 0 180 -395 0 -395 0 0 1050 0 1050 1445 0 1445 0 0 -1050z m1840 -1050 l0 -1050 -395 0 -395 0 0 -180 0 -180 -360 180 -360 180 -560 0 -560 0 0 395 0 395 525 0 525 0 0 655 0 655 790 0 790 0 0 -1050z"/>
    </g>
</svg>