<svg version="1.0" xmlns="http://www.w3.org/2000/svg" width="17px" height="17px" viewBox="0 0 440 470">
    <g transform="translate(0,420) scale(0.1,-0.1)" fill="#000000">
        <path d="M1667 2802 l-1397 -1397 -95 -495 c-109 -567 -169 -899 -164 -904 6 -5 360 59 911 165 l487 93 1398 1398 1398 1398 -570 570 -570 570 -1398 -1398z m1860 71 l-187 -188 -320 320 c-176 176 -320 324 -320 330 0 5 82 92 182 192 l183 183 325 -325 325 -325 -188 -187z m-754 -111 l318 -318 -926 -925 c-509 -508 -936 -927 -948 -931 -38 -12 -768 -151 -771 -147 -2 2 29 173 70 379 40 206 74 381 74 389 0 15 1839 1869 1855 1870 6 1 153 -142 328 -317z"/>
    </g>
</svg>