<svg version="1.0" xmlns="http://www.w3.org/2000/svg" width="13px" height="14px" viewBox="0 0 561 560">
    <g transform="translate(0,560) scale(0.1,-0.1)" fill="#000000">
        <path d="M2605 5590 c-692 -57 -1300 -333 -1770 -804 -432 -433 -689 -937 -797 -1561 -30 -178 -33 -636 -5 -815 67 -427 215 -819 430 -1142 537 -805 1387 -1260 2352 -1261 520 -1 1034 145 1465 414 405 253 772 643 991 1053 145 272 254 606 304 926 22 144 31 495 16 656 -75 796 -476 1511 -1116 1988 -389 290 -799 457 -1293 526 -165 23 -426 32 -577 20z m538 -365 c558 -87 1028 -324 1403 -707 425 -433 668 -978 703 -1572 69 -1194 -724 -2256 -1889 -2530 -198 -47 -319 -60 -550 -60 -222 0 -337 12 -535 55 -472 103 -897 342 -1236 696 -408 426 -641 958 -678 1545 -37 597 142 1171 517 1658 36 47 127 146 201 220 217 217 382 336 636 460 265 130 541 211 840 245 147 17 448 12 588 -10z"/>
        <path d="M2540 3850 l0 -260 265 0 265 0 0 260 0 260 -265 0 -265 0 0 -260z"/>
        <path d="M2190 2975 l0 -175 220 0 220 0 0 -525 0 -525 -260 0 -260 0 0 -175 0 -175 695 0 695 0 0 175 0 175 -260 0 -260 0 0 700 0 700 -395 0 -395 0 0 -175z"/>
    </g>
</svg>