<svg version="1.0" xmlns="http://www.w3.org/2000/svg" viewBox="0 0 200 51">
    <g transform="translate(0,51) scale(0.1,-0.1)" fill="#000000" stroke="none">
        <path d="M736 496 c-53 -20 -102 -70 -121 -124 -18 -54 -20 -169 -3 -223 44 -148 234 -194 340 -82 44 46 60 98 60 190 0 109 -31 180 -97 218 -53 32 -127 40 -179 21z m134 -96 c31 -31 40 -64 40 -145 0 -118 -30 -165 -105 -165 -70 0 -105 55 -105 165 0 71 11 109 42 143 29 30 99 31 128 2z"/>
        <path d="M0 255 l0 -245 55 0 55 0 0 73 c0 66 3 76 26 97 16 16 27 21 32 14 4 -6 31 -50 61 -98 l54 -86 59 0 c70 0 72 -11 -34 148 -38 56 -71 109 -74 117 -4 8 28 55 75 114 45 55 81 102 81 105 0 3 -26 6 -59 6 l-58 0 -82 -106 -81 -107 0 107 0 106 -55 0 -55 0 0 -245z"/>
        <path d="M1260 255 l0 -245 50 0 50 0 0 90 0 90 40 0 40 0 45 -90 45 -90 56 0 55 0 -53 101 -53 100 29 21 c56 41 73 135 36 196 -34 55 -86 72 -222 72 l-118 0 0 -245z m235 140 c14 -13 25 -36 25 -50 0 -14 -11 -37 -25 -50 -20 -21 -34 -25 -80 -25 l-55 0 0 75 0 75 55 0 c46 0 60 -4 80 -25z"/>
        <path d="M1870 255 l0 -245 50 0 50 0 0 73 c0 66 3 76 26 97 15 15 28 21 32 14 4 -6 32 -49 62 -97 l55 -87 58 0 c31 0 57 2 57 5 0 3 -38 64 -85 136 -48 74 -82 136 -78 142 4 7 42 56 85 110 l79 97 -63 0 -63 0 -80 -105 -80 -106 -3 106 -3 105 -49 0 -50 0 0 -245z"/>
    </g>
</svg>
