<svg version="1.0" xmlns="http://www.w3.org/2000/svg" width="18px" height="16px" viewBox="0 0 491 560">
    <g transform="translate(0,560) scale(0.1,-0.1)" fill="#000000">
        <path d="M1439 5252 l-216 -347 -606 -3 -607 -2 0 -175 0 -175 185 0 185 0 0 -27 c1 -16 74 -1038 163 -2273 l163 -2245 1747 -3 1747 -2 4 22 c4 19 327 4496 326 4521 0 4 83 7 185 7 l185 0 0 175 0 175 -607 2 -606 3 -216 347 -216 347 -800 0 -800 0 -216 -347z m1725 -172 c58 -94 106 -172 106 -175 0 -3 -367 -5 -815 -5 -448 0 -815 2 -815 5 0 3 48 81 106 175 l106 170 603 0 603 0 106 -170z m1016 -559 c0 -16 -68 -955 -150 -2085 -83 -1131 -150 -2063 -150 -2071 0 -13 -171 -15 -1425 -15 -1192 0 -1425 2 -1425 14 0 7 -67 939 -150 2070 -82 1131 -150 2070 -150 2086 l0 30 1725 0 1725 0 0 -29z"/>
    </g>
</svg>